<?xml version="1.0" encoding="utf-8"?>
<!-- Generator: Adobe Illustrator 27.5.0, SVG Export Plug-In . SVG Version: 6.00 Build 0)  -->
<svg version="1.1" xmlns="http://www.w3.org/2000/svg" xmlns:xlink="http://www.w3.org/1999/xlink" x="0px" y="0px"
	 viewBox="0 0 750 500" style="enable-background:new 0 0 750 500;" xml:space="preserve">
<g id="BACKGROUND">
	<rect style="fill:#1E1E63;" width="750" height="500"/>
</g>
<g id="OBJECTS">
	<g>
		<rect x="89.559" y="71.877" style="fill:#BABABA;" width="580.514" height="359.823"/>
		<g>
			<rect x="86.743" y="68.3" style="fill:#FFFFFF;" width="580.514" height="359.823"/>
			<g>
				<g>
					<g>
						
							<text transform="matrix(1 0 0 1 123.5274 108.1331)" style="fill:#353596; font-family:'Montserrat-Regular'; font-size:4px; letter-spacing:1;">ABOUT</text>
						
							<text transform="matrix(1 0 0 1 174.4915 108.1331)" style="fill:#353596; font-family:'Montserrat-Regular'; font-size:4px; letter-spacing:1;">CATEGORIES</text>
						
							<text transform="matrix(1 0 0 1 245.5127 108.1331)" style="fill:#353596; font-family:'Montserrat-Regular'; font-size:4px; letter-spacing:1;">PROMO</text>
					</g>
				</g>
				<g>
					<g>
						<g>
							<g>
								<path style="fill-rule:evenodd;clip-rule:evenodd;fill:#353596;" d="M179.63,383.908c0.357-0.012,0.713-0.003,1.071-0.003
									c0.043,0,0.087,0,0.147,0v-1.856c-0.191-0.019-0.39-0.047-0.59-0.056c-0.366-0.016-0.732-0.035-1.099-0.026
									c-0.559,0.012-1.089,0.148-1.551,0.479c-0.53,0.382-0.821,0.917-0.932,1.55c-0.046,0.261-0.058,0.531-0.064,0.796
									c-0.01,0.417-0.002,0.833-0.001,1.25v0.156h-1.776v2.073h1.766v5.211h2.158v-5.203h1.76c0.09-0.689,0.178-1.372,0.271-2.083
									c-0.141,0-0.269,0-0.396,0c-0.5,0.002-1.649,0-1.649,0s0.005-1.027,0.017-1.473
									C178.779,384.112,179.141,383.926,179.63,383.908z"/>
							</g>
						</g>
						<g>
							<g>
								<path style="fill-rule:evenodd;clip-rule:evenodd;fill:#353596;" d="M203.275,390.313c-1.165-0.041-1.893-0.877-2.086-1.556
									c0.324,0.061,0.643,0.049,0.961-0.029c0.008-0.002,0.016-0.008,0.032-0.015c-0.631-0.147-1.118-0.484-1.456-1.029
									c-0.224-0.362-0.332-0.757-0.328-1.192c0.315,0.169,0.644,0.262,0.997,0.272c-0.474-0.342-0.792-0.788-0.922-1.36
									c-0.129-0.57-0.046-1.112,0.24-1.624c1.214,1.429,2.75,2.213,4.623,2.342c-0.013-0.089-0.027-0.167-0.036-0.245
									c-0.062-0.527,0.043-1.02,0.328-1.466c0.356-0.559,0.866-0.907,1.52-1.013c0.754-0.124,1.412,0.091,1.963,0.625
									c0.037,0.035,0.068,0.047,0.119,0.035c0.461-0.1,0.895-0.266,1.304-0.501c0.01-0.006,0.02-0.011,0.03-0.015
									c0.002-0.002,0.006-0.001,0.015-0.001c-0.177,0.521-0.501,0.923-0.96,1.22c0.434-0.047,0.848-0.163,1.248-0.336
									c0.003,0.004,0.006,0.007,0.009,0.01c-0.086,0.112-0.169,0.227-0.258,0.336c-0.238,0.293-0.511,0.551-0.815,0.774
									c-0.026,0.019-0.038,0.038-0.037,0.07c0.012,0.333-0.001,0.665-0.042,0.996c-0.086,0.696-0.281,1.361-0.578,1.996
									c-0.307,0.655-0.708,1.247-1.212,1.767c-0.854,0.883-1.883,1.452-3.08,1.717c-0.411,0.09-0.828,0.137-1.249,0.148
									c-1.293,0.038-2.487-0.283-3.587-0.963c-0.014-0.008-0.028-0.018-0.053-0.034c0.782,0.084,1.526-0.016,2.242-0.309
									C202.589,390.779,202.941,390.575,203.275,390.313z"/>
							</g>
						</g>
						<g>
							<g>
								<path style="fill:#353596;" d="M237.811,384.738c-0.075-0.734-0.356-1.385-0.902-1.905c-0.574-0.548-1.277-0.79-2.047-0.831
									c-1.312-0.072-4.428-0.117-5.521,0.062c-1.25,0.204-2.069,0.933-2.415,2.168c-0.266,0.95-0.213,5.327-0.058,6.266
									c0.212,1.284,0.97,2.107,2.243,2.435c0.881,0.227,5.208,0.198,6.179,0.041c1.285-0.208,2.111-0.962,2.445-2.232
									C237.989,389.766,237.9,385.618,237.811,384.738z M236.783,390.316c-0.149,0.975-0.797,1.579-1.777,1.686
									c-0.901,0.099-4.922,0.153-5.757-0.081c-0.799-0.223-1.256-0.773-1.389-1.577c-0.127-0.768-0.158-4.606-0.002-5.633
									c0.147-0.967,0.794-1.57,1.769-1.679c0.989-0.111,4.547-0.123,5.495,0.022c0.973,0.149,1.576,0.798,1.683,1.78
									C236.906,385.751,236.934,389.332,236.783,390.316z M232.321,384.656c-1.581-0.001-2.863,1.28-2.864,2.861
									c-0.001,1.581,1.28,2.863,2.861,2.864c1.581,0.001,2.863-1.28,2.864-2.861C235.182,385.94,233.902,384.657,232.321,384.656z
									 M232.301,389.368c-1.022-0.009-1.843-0.845-1.834-1.867c0.009-1.022,0.845-1.844,1.868-1.834
									c1.022,0.009,1.843,0.845,1.834,1.868C234.16,388.556,233.323,389.377,232.301,389.368z M235.965,384.548
									c-0.001,0.37-0.302,0.669-0.672,0.668c-0.37-0.001-0.669-0.302-0.669-0.672c0.001-0.37,0.302-0.669,0.672-0.668
									C235.666,383.877,235.966,384.178,235.965,384.548z"/>
								<path style="fill:#353596;" d="M237.811,384.738c-0.075-0.734-0.356-1.385-0.902-1.905c-0.574-0.548-1.277-0.79-2.047-0.831
									c-1.312-0.072-4.428-0.117-5.521,0.062c-1.25,0.204-2.069,0.933-2.415,2.168c-0.266,0.95-0.213,5.327-0.058,6.266
									c0.212,1.284,0.97,2.107,2.243,2.435c0.881,0.227,5.208,0.198,6.179,0.041c1.285-0.208,2.111-0.962,2.445-2.232
									C237.989,389.766,237.9,385.618,237.811,384.738z M236.783,390.316c-0.149,0.975-0.797,1.579-1.777,1.686
									c-0.901,0.099-4.922,0.153-5.757-0.081c-0.799-0.223-1.256-0.773-1.389-1.577c-0.127-0.768-0.158-4.606-0.002-5.633
									c0.147-0.967,0.794-1.57,1.769-1.679c0.989-0.111,4.547-0.123,5.495,0.022c0.973,0.149,1.576,0.798,1.683,1.78
									C236.906,385.751,236.934,389.332,236.783,390.316z M232.321,384.656c-1.581-0.001-2.863,1.28-2.864,2.861
									c-0.001,1.581,1.28,2.863,2.861,2.864c1.581,0.001,2.863-1.28,2.864-2.861C235.182,385.94,233.902,384.657,232.321,384.656z
									 M232.301,389.368c-1.022-0.009-1.843-0.845-1.834-1.867c0.009-1.022,0.845-1.844,1.868-1.834
									c1.022,0.009,1.843,0.845,1.834,1.868C234.16,388.556,233.323,389.377,232.301,389.368z M235.965,384.548
									c-0.001,0.37-0.302,0.669-0.672,0.668c-0.37-0.001-0.669-0.302-0.669-0.672c0.001-0.37,0.302-0.669,0.672-0.668
									C235.666,383.877,235.966,384.178,235.965,384.548z"/>
							</g>
						</g>
						
							<text transform="matrix(1 0 0 1 123.5275 390.5021)" style="fill:#353596; font-family:'Montserrat-Bold'; font-size:6.3522px; letter-spacing:1;">FOLLOW</text>
					</g>
				</g>
				<g>
					<g>
						<rect x="123.528" y="264.039" style="fill:none;" width="202.873" height="30.575"/>
						<text transform="matrix(1 0 0 1 123.5256 268.5731)"><tspan x="0" y="0" style="fill:#353596; font-family:'Montserrat-Regular'; font-size:6.1039px;">Lorem ipsum dolor sit amet, consectetuer adipiscing elit, </tspan><tspan x="175.375" y="0" style="fill:#353596; font-family:'Montserrat-Bold'; font-size:6.1039px;">sed </tspan><tspan x="0" y="11.699" style="fill:#353596; font-family:'Montserrat-Bold'; font-size:6.1039px;">diam nonummy nibh euismod tincidunt ut laoreet dolore </tspan><tspan x="0" y="23.397" style="fill:#353596; font-family:'Montserrat-Bold'; font-size:6.1039px;">magna </tspan><tspan x="24.153" y="23.397" style="fill:#353596; font-family:'Montserrat-Regular'; font-size:6.1039px;">aliquam erat volutpat. Ut wisi enim ad minim veniam.</tspan></text>
					</g>
					<g>
						<g>
							<g style="opacity:0.18;">
								<path style="fill:#353596;" d="M194.069,330.153h-59.57c-5.149,0-9.323-4.174-9.323-9.323v-0.751
									c0-5.149,4.174-9.323,9.323-9.323h59.57c5.149,0,9.323,4.174,9.323,9.323v0.751
									C203.393,325.979,199.218,330.153,194.069,330.153z"/>
							</g>
							<linearGradient id="SVGID_1_" gradientUnits="userSpaceOnUse" x1="174.4742" y1="339.7045" x2="150.1051" y2="297.496">
								<stop  offset="0" style="stop-color:#1B71BE"/>
								<stop  offset="0.0439" style="stop-color:#1975C1"/>
								<stop  offset="0.4344" style="stop-color:#0B94D4"/>
								<stop  offset="0.7669" style="stop-color:#03A6E1"/>
								<stop  offset="1" style="stop-color:#00ADE5"/>
							</linearGradient>
							<path style="fill:url(#SVGID_1_);" d="M191.729,328.298h-58.878c-5.149,0-9.323-4.174-9.323-9.323v-0.751
								c0-5.149,4.174-9.323,9.323-9.323h58.878c5.149,0,9.323,4.174,9.323,9.323v0.751
								C201.052,324.125,196.878,328.298,191.729,328.298z"/>
							
								<text transform="matrix(1 0 0 1 134.6533 320.6749)" style="fill:#FFFFFF; font-family:'Montserrat-Black'; font-size:6.296px; letter-spacing:1;">LEARN MORE </text>
						</g>
					</g>
					<g>
						<text transform="matrix(1 0 0 1 123.5282 216.1312)"><tspan x="0" y="0" style="fill:#353596; font-family:'Montserrat-Black'; font-size:36.1468px;">UI/UX</tspan><tspan x="0" y="32" style="fill:#353596; font-family:'Montserrat-Regular'; font-size:36.1468px;">Design</tspan></text>
					</g>
				</g>
			</g>
			<g>
				
					<linearGradient id="SVGID_00000177470924273573716950000010595487758439240862_" gradientUnits="userSpaceOnUse" x1="462.7505" y1="217.7458" x2="670.1927" y2="425.1879">
					<stop  offset="0" style="stop-color:#6767CE"/>
					<stop  offset="0.2467" style="stop-color:#8282D7"/>
					<stop  offset="0.4952" style="stop-color:#9696DD"/>
					<stop  offset="0.7459" style="stop-color:#A2A2E1"/>
					<stop  offset="1" style="stop-color:#A6A6E2"/>
				</linearGradient>
				<polygon style="fill:url(#SVGID_00000177470924273573716950000010595487758439240862_);" points="319.176,428.123 612.196,68.3 
					667.257,68.3 667.257,428.123 				"/>
				<g>
					<path style="fill:#E6E6FF;" d="M573.914,373.458H411.66c-3.853,0-6.976-3.123-6.976-6.976V120.608
						c0-3.853,3.123-6.976,6.976-6.976h162.254c3.853,0,6.976,3.123,6.976,6.976v245.874
						C580.89,370.334,577.767,373.458,573.914,373.458z"/>
					
						<linearGradient id="SVGID_00000168076826118063195050000003835241723291166126_" gradientUnits="userSpaceOnUse" x1="420.2339" y1="157.8078" x2="506.7964" y2="157.8078">
						<stop  offset="0" style="stop-color:#D7D7FF"/>
						<stop  offset="1" style="stop-color:#C5C4FF"/>
					</linearGradient>
					<path style="fill:url(#SVGID_00000168076826118063195050000003835241723291166126_);" d="M503.394,183.257h-79.757
						c-1.879,0-3.403-1.523-3.403-3.403v-44.093c0-1.879,1.523-3.403,3.403-3.403h79.757c1.879,0,3.403,1.523,3.403,3.403v44.093
						C506.796,181.734,505.273,183.257,503.394,183.257z"/>
					
						<linearGradient id="SVGID_00000081617571562717730070000002227043286583989951_" gradientUnits="userSpaceOnUse" x1="389.1974" y1="253.012" x2="506.7964" y2="253.012">
						<stop  offset="0" style="stop-color:#D7D7FF"/>
						<stop  offset="1" style="stop-color:#C5C4FF"/>
					</linearGradient>
					<path style="fill:url(#SVGID_00000081617571562717730070000002227043286583989951_);" d="M497.329,262.479h-98.664
						c-5.229,0-9.467-4.239-9.467-9.467l0,0c0-5.229,4.239-9.467,9.467-9.467h98.664c5.229,0,9.467,4.239,9.467,9.467l0,0
						C506.796,258.241,502.558,262.479,497.329,262.479z"/>
					
						<linearGradient id="SVGID_00000035518159617927762240000014012680684948826251_" gradientUnits="userSpaceOnUse" x1="389.1974" y1="303.607" x2="506.7964" y2="303.607">
						<stop  offset="0" style="stop-color:#D7D7FF"/>
						<stop  offset="1" style="stop-color:#C5C4FF"/>
					</linearGradient>
					<path style="fill:url(#SVGID_00000035518159617927762240000014012680684948826251_);" d="M497.329,313.074h-98.664
						c-5.229,0-9.467-4.239-9.467-9.467l0,0c0-5.229,4.239-9.467,9.467-9.467h98.664c5.229,0,9.467,4.239,9.467,9.467l0,0
						C506.796,308.836,502.558,313.074,497.329,313.074z"/>
					
						<linearGradient id="SVGID_00000093173279384653216000000003514543968045593486_" gradientUnits="userSpaceOnUse" x1="513.4306" y1="216.5692" x2="599.9931" y2="216.5692">
						<stop  offset="0" style="stop-color:#D7D7FF"/>
						<stop  offset="1" style="stop-color:#C5C4FF"/>
					</linearGradient>
					<path style="fill:url(#SVGID_00000093173279384653216000000003514543968045593486_);" d="M596.59,242.019h-79.757
						c-1.879,0-3.403-1.523-3.403-3.403v-44.093c0-1.879,1.523-3.403,3.403-3.403h79.757c1.879,0,3.403,1.523,3.403,3.403v44.093
						C599.993,240.495,598.47,242.019,596.59,242.019z"/>
					
						<linearGradient id="SVGID_00000170978201288108342450000003735291477870826645_" gradientUnits="userSpaceOnUse" x1="513.4306" y1="307.1061" x2="599.9931" y2="307.1061">
						<stop  offset="0" style="stop-color:#D7D7FF"/>
						<stop  offset="1" style="stop-color:#C5C4FF"/>
					</linearGradient>
					<path style="fill:url(#SVGID_00000170978201288108342450000003735291477870826645_);" d="M593.086,345.522h-72.747
						c-3.815,0-6.908-3.093-6.908-6.908v-63.017c0-3.815,3.093-6.908,6.908-6.908h72.747c3.815,0,6.907,3.093,6.907,6.908v63.017
						C599.993,342.429,596.901,345.522,593.086,345.522z"/>
					
						<linearGradient id="SVGID_00000151502862790762727990000005927437235707427201_" gradientUnits="userSpaceOnUse" x1="513.4306" y1="157.8078" x2="554.6276" y2="157.8078">
						<stop  offset="0" style="stop-color:#D7D7FF"/>
						<stop  offset="1" style="stop-color:#C5C4FF"/>
					</linearGradient>
					
						<rect x="513.431" y="132.359" style="fill:url(#SVGID_00000151502862790762727990000005927437235707427201_);" width="41.197" height="50.899"/>
					
						<linearGradient id="SVGID_00000116216739548542329950000016243688446198676115_" gradientUnits="userSpaceOnUse" x1="432.9084" y1="173.7829" x2="389.2504" y2="98.165">
						<stop  offset="0" style="stop-color:#1089CD"/>
						<stop  offset="1" style="stop-color:#00ADE5"/>
					</linearGradient>
					<path style="fill:url(#SVGID_00000116216739548542329950000016243688446198676115_);" d="M439.968,169.057h-57.776
						c-2.317,0-4.195-1.878-4.195-4.195v-57.776c0-2.317,1.878-4.195,4.195-4.195h57.776c2.317,0,4.195,1.878,4.195,4.195v57.776
						C444.163,167.179,442.285,169.057,439.968,169.057z"/>
					<g>
						
							<linearGradient id="SVGID_00000138532027082457587550000006978480828212245398_" gradientUnits="userSpaceOnUse" x1="422.468" y1="322.0804" x2="466.072" y2="322.0804">
							<stop  offset="0" style="stop-color:#D7D7FF"/>
							<stop  offset="1" style="stop-color:#C5C4FF"/>
						</linearGradient>
						
							<line style="fill:none;stroke:url(#SVGID_00000138532027082457587550000006978480828212245398_);stroke-linecap:round;stroke-miterlimit:10;" x1="422.968" y1="322.08" x2="465.572" y2="322.08"/>
						
							<linearGradient id="SVGID_00000072266603939926263250000001481012642643981497_" gradientUnits="userSpaceOnUse" x1="422.468" y1="327.4014" x2="466.072" y2="327.4014">
							<stop  offset="0" style="stop-color:#D7D7FF"/>
							<stop  offset="1" style="stop-color:#C5C4FF"/>
						</linearGradient>
						
							<line style="fill:none;stroke:url(#SVGID_00000072266603939926263250000001481012642643981497_);stroke-linecap:round;stroke-miterlimit:10;" x1="422.968" y1="327.401" x2="465.572" y2="327.401"/>
						
							<linearGradient id="SVGID_00000029727679193796681880000005137607180737578658_" gradientUnits="userSpaceOnUse" x1="422.468" y1="332.7223" x2="466.072" y2="332.7223">
							<stop  offset="0" style="stop-color:#D7D7FF"/>
							<stop  offset="1" style="stop-color:#C5C4FF"/>
						</linearGradient>
						
							<line style="fill:none;stroke:url(#SVGID_00000029727679193796681880000005137607180737578658_);stroke-linecap:round;stroke-miterlimit:10;" x1="422.968" y1="332.722" x2="465.572" y2="332.722"/>
						
							<linearGradient id="SVGID_00000096740304816289934410000012026122508851003056_" gradientUnits="userSpaceOnUse" x1="422.468" y1="338.0433" x2="466.072" y2="338.0433">
							<stop  offset="0" style="stop-color:#D7D7FF"/>
							<stop  offset="1" style="stop-color:#C5C4FF"/>
						</linearGradient>
						
							<line style="fill:none;stroke:url(#SVGID_00000096740304816289934410000012026122508851003056_);stroke-linecap:round;stroke-miterlimit:10;" x1="422.968" y1="338.043" x2="465.572" y2="338.043"/>
						
							<linearGradient id="SVGID_00000026844738988626633790000015374725946705472405_" gradientUnits="userSpaceOnUse" x1="441.264" y1="343.3642" x2="466.072" y2="343.3642">
							<stop  offset="0" style="stop-color:#D7D7FF"/>
							<stop  offset="1" style="stop-color:#C5C4FF"/>
						</linearGradient>
						
							<line style="fill:none;stroke:url(#SVGID_00000026844738988626633790000015374725946705472405_);stroke-linecap:round;stroke-miterlimit:10;" x1="441.764" y1="343.364" x2="465.572" y2="343.364"/>
					</g>
					<g>
						
							<linearGradient id="SVGID_00000119801695864555937240000001970867001254849419_" gradientUnits="userSpaceOnUse" x1="430.079" y1="195.2854" x2="486.4747" y2="195.2854" gradientTransform="matrix(-1 0 0 1 906.2086 0)">
							<stop  offset="0" style="stop-color:#D7D7FF"/>
							<stop  offset="1" style="stop-color:#C5C4FF"/>
						</linearGradient>
						
							<line style="fill:none;stroke:url(#SVGID_00000119801695864555937240000001970867001254849419_);stroke-linecap:round;stroke-miterlimit:10;" x1="475.63" y1="195.285" x2="420.234" y2="195.285"/>
						
							<linearGradient id="SVGID_00000181785593066489558600000013200096285335278218_" gradientUnits="userSpaceOnUse" x1="430.079" y1="200.6064" x2="486.4747" y2="200.6064" gradientTransform="matrix(-1 0 0 1 906.2086 0)">
							<stop  offset="0" style="stop-color:#D7D7FF"/>
							<stop  offset="1" style="stop-color:#C5C4FF"/>
						</linearGradient>
						
							<line style="fill:none;stroke:url(#SVGID_00000181785593066489558600000013200096285335278218_);stroke-linecap:round;stroke-miterlimit:10;" x1="475.63" y1="200.606" x2="420.234" y2="200.606"/>
						
							<linearGradient id="SVGID_00000119119126835993083950000010273873163896965262_" gradientUnits="userSpaceOnUse" x1="430.079" y1="205.9274" x2="486.4747" y2="205.9274" gradientTransform="matrix(-1 0 0 1 906.2086 0)">
							<stop  offset="0" style="stop-color:#D7D7FF"/>
							<stop  offset="1" style="stop-color:#C5C4FF"/>
						</linearGradient>
						
							<line style="fill:none;stroke:url(#SVGID_00000119119126835993083950000010273873163896965262_);stroke-linecap:round;stroke-miterlimit:10;" x1="475.63" y1="205.927" x2="420.234" y2="205.927"/>
						
							<linearGradient id="SVGID_00000176760549288605367790000002582480823238198412_" gradientUnits="userSpaceOnUse" x1="430.079" y1="211.2483" x2="486.4747" y2="211.2483" gradientTransform="matrix(-1 0 0 1 906.2086 0)">
							<stop  offset="0" style="stop-color:#D7D7FF"/>
							<stop  offset="1" style="stop-color:#C5C4FF"/>
						</linearGradient>
						
							<line style="fill:none;stroke:url(#SVGID_00000176760549288605367790000002582480823238198412_);stroke-linecap:round;stroke-miterlimit:10;" x1="475.63" y1="211.248" x2="420.234" y2="211.248"/>
						
							<linearGradient id="SVGID_00000090286114751768473200000009184848360091069868_" gradientUnits="userSpaceOnUse" x1="454.5184" y1="216.5693" x2="486.4747" y2="216.5693" gradientTransform="matrix(-1 0 0 1 906.2086 0)">
							<stop  offset="0" style="stop-color:#D7D7FF"/>
							<stop  offset="1" style="stop-color:#C5C4FF"/>
						</linearGradient>
						
							<line style="fill:none;stroke:url(#SVGID_00000090286114751768473200000009184848360091069868_);stroke-linecap:round;stroke-miterlimit:10;" x1="451.19" y1="216.569" x2="420.234" y2="216.569"/>
					</g>
					<g>
						<g>
							
								<line style="fill:none;stroke:#009ADB;stroke-linecap:round;stroke-miterlimit:10;" x1="446.858" y1="121.054" x2="446.858" y2="121.054"/>
							
								<line style="fill:none;stroke:#009ADB;stroke-linecap:round;stroke-miterlimit:10;stroke-dasharray:0,3.9622;" x1="450.821" y1="121.054" x2="563.743" y2="121.054"/>
							
								<line style="fill:none;stroke:#009ADB;stroke-linecap:round;stroke-miterlimit:10;" x1="565.724" y1="121.054" x2="565.724" y2="121.054"/>
							
								<line style="fill:none;stroke:#009ADB;stroke-linecap:round;stroke-miterlimit:10;stroke-dasharray:0,3.972;" x1="565.724" y1="125.026" x2="565.724" y2="186.592"/>
							
								<line style="fill:none;stroke:#009ADB;stroke-linecap:round;stroke-miterlimit:10;" x1="565.724" y1="188.578" x2="565.724" y2="188.578"/>
						</g>
					</g>
					<polyline style="fill:none;stroke:#009ADB;stroke-linecap:round;stroke-miterlimit:10;stroke-dasharray:0,4;" points="
						512.084,253.012 548.522,253.012 548.522,307.106 565.724,307.106 					"/>
					<polyline style="fill:none;stroke:#009ADB;stroke-linecap:round;stroke-miterlimit:10;stroke-dasharray:0,4;" points="
						385.818,303.607 378,303.607 378,382.713 460.321,382.713 					"/>
					<g>
						
							<linearGradient id="SVGID_00000077308424538306310620000004323442701385751480_" gradientUnits="userSpaceOnUse" x1="568.7958" y1="308.2924" x2="631.1905" y2="308.2924">
							<stop  offset="0" style="stop-color:#1089CD"/>
							<stop  offset="1" style="stop-color:#00ADE5"/>
						</linearGradient>
						<path style="fill:url(#SVGID_00000077308424538306310620000004323442701385751480_);" d="M598.902,286.701l-29.263,19.994
							c-1.124,0.768-1.124,2.426,0,3.194l29.263,19.994c0.658,0.45,1.524,0.45,2.182,0l29.263-19.994
							c1.124-0.768,1.124-2.426,0-3.194l-29.263-19.994C600.426,286.252,599.56,286.252,598.902,286.701z"/>
						<g>
							<polyline style="fill:none;stroke:#FFFFFF;stroke-linecap:round;stroke-linejoin:round;stroke-miterlimit:10;" points="
								593.135,303.191 587.071,308.328 593.135,313.464 							"/>
							<polyline style="fill:none;stroke:#FFFFFF;stroke-linecap:round;stroke-linejoin:round;stroke-miterlimit:10;" points="
								605.92,313.464 611.984,308.328 605.92,303.191 							"/>
							
								<line style="fill:none;stroke:#FFFFFF;stroke-linecap:round;stroke-linejoin:round;stroke-miterlimit:10;" x1="597.251" y1="314.779" x2="602.61" y2="301.1"/>
						</g>
					</g>
					<g>
						
							<text transform="matrix(1 0 0 1 399.5521 144.6304)" style="fill:#FFFFFF; font-family:'Montserrat-Light'; font-size:20.7099px;">UI</text>
					</g>
					
						<linearGradient id="SVGID_00000036950986042402315540000003688217057662624133_" gradientUnits="userSpaceOnUse" x1="528.6254" y1="401.1133" x2="484.9674" y2="325.4954">
						<stop  offset="0" style="stop-color:#1089CD"/>
						<stop  offset="1" style="stop-color:#00ADE5"/>
					</linearGradient>
					<path style="fill:url(#SVGID_00000036950986042402315540000003688217057662624133_);" d="M535.685,396.388h-57.776
						c-2.317,0-4.195-1.878-4.195-4.195v-57.776c0-2.317,1.878-4.195,4.195-4.195h57.776c2.317,0,4.195,1.878,4.195,4.195v57.776
						C539.88,394.509,538.002,396.388,535.685,396.388z"/>
					
						<text transform="matrix(1 0 0 1 490.5785 371.5664)" style="fill:#FFFFFF; font-family:'Montserrat-Light'; font-size:20.7099px;">UX</text>
					<g>
						<polygon style="fill:none;stroke:#00A3E1;stroke-linecap:round;stroke-miterlimit:10;" points="562.067,216.569 
							549.942,209.569 549.942,223.57 						"/>
						<circle style="fill:none;stroke:#00A3E1;stroke-linecap:round;stroke-miterlimit:10;" cx="554.628" cy="216.283" r="15.677"/>
					</g>
					<g>
						<path style="fill:none;stroke:#FFFFFF;stroke-miterlimit:10;" d="M494.991,170.321v4.575c0,1.026-0.832,1.858-1.858,1.858
							h-4.53"/>
						<path style="fill:none;stroke:#FFFFFF;stroke-miterlimit:10;" d="M489.374,138.031h3.759c1.026,0,1.858,0.832,1.858,1.858
							v4.253"/>
						<path style="fill:none;stroke:#FFFFFF;stroke-miterlimit:10;" d="M456.268,143.862v-3.973c0-1.026,0.832-1.858,1.858-1.858
							h3.879"/>
						<path style="fill:none;stroke:#FFFFFF;stroke-miterlimit:10;" d="M462.215,176.754h-4.089c-1.026,0-1.858-0.832-1.858-1.858
							v-4.505"/>
					</g>
					<polyline style="fill:none;stroke:#009ADB;stroke-linecap:round;stroke-miterlimit:10;stroke-dasharray:0,4;" points="
						447.997,253.012 447.997,231.96 500.225,231.96 500.225,162.064 512.084,162.064 					"/>
					<g>
						
							<linearGradient id="SVGID_00000036245385124856011870000008012284728994713507_" gradientUnits="userSpaceOnUse" x1="432.2346" y1="278.3095" x2="467.1653" y2="278.3095">
							<stop  offset="0" style="stop-color:#D7D7FF"/>
							<stop  offset="1" style="stop-color:#C5C4FF"/>
						</linearGradient>
						<path style="fill:url(#SVGID_00000036245385124856011870000008012284728994713507_);" d="M457.698,287.777h-15.996
							c-5.229,0-9.467-4.239-9.467-9.467l0,0c0-5.229,4.239-9.467,9.467-9.467h15.996c5.229,0,9.467,4.239,9.467,9.467l0,0
							C467.165,283.538,462.927,287.777,457.698,287.777z"/>
						
							<linearGradient id="SVGID_00000147921076618929346410000014281726113520884390_" gradientUnits="userSpaceOnUse" x1="434.8184" y1="278.3094" x2="450.0375" y2="278.3094">
							<stop  offset="0" style="stop-color:#1089CD"/>
							<stop  offset="1" style="stop-color:#00ADE5"/>
						</linearGradient>
						<circle style="fill:url(#SVGID_00000147921076618929346410000014281726113520884390_);" cx="442.428" cy="278.309" r="7.61"/>
					</g>
					<g>
						
							<linearGradient id="SVGID_00000133518504203497785910000014566441240553320844_" gradientUnits="userSpaceOnUse" x1="471.8656" y1="278.3095" x2="506.7964" y2="278.3095">
							<stop  offset="0" style="stop-color:#1089CD"/>
							<stop  offset="1" style="stop-color:#00ADE5"/>
						</linearGradient>
						<path style="fill:url(#SVGID_00000133518504203497785910000014566441240553320844_);" d="M497.329,287.777h-15.996
							c-5.229,0-9.467-4.239-9.467-9.467l0,0c0-5.229,4.239-9.467,9.467-9.467h15.996c5.229,0,9.467,4.239,9.467,9.467l0,0
							C506.796,283.538,502.558,287.777,497.329,287.777z"/>
						
							<linearGradient id="SVGID_00000109738558527022948260000016791192620236259510_" gradientUnits="userSpaceOnUse" x1="489.331" y1="278.3094" x2="504.5501" y2="278.3094">
							<stop  offset="0" style="stop-color:#D7D7FF"/>
							<stop  offset="1" style="stop-color:#C5C4FF"/>
						</linearGradient>
						<circle style="fill:url(#SVGID_00000109738558527022948260000016791192620236259510_);" cx="496.941" cy="278.309" r="7.61"/>
					</g>
				</g>
			</g>
		</g>
	</g>
</g>
</svg>
