<svg width="120px" height="120px" viewBox="-63.36 -63.36 318.72 318.72" xmlns="http://www.w3.org/2000/svg" fill="#000000"><g id="SVGRepo_bgCarrier" stroke-width="0" transform="translate(0,0), scale(1)"><path transform="translate(-63.36, -63.36), scale(19.92)" fill="#5be9b9" d="M9.166.33a2.25 2.25 0 00-2.332 0l-5.25 3.182A2.25 2.25 0 00.5 5.436v5.128a2.25 2.25 0 001.084 1.924l5.25 3.182a2.25 2.25 0 002.332 0l5.25-3.182a2.25 2.25 0 001.084-1.924V5.436a2.25 2.25 0 00-1.084-1.924L9.166.33z" strokewidth="0"></path></g><g id="SVGRepo_tracerCarrier" stroke-linecap="round" stroke-linejoin="round"></g><g id="SVGRepo_iconCarrier"> <g fill="none" stroke="#000000" stroke-width="12.864"> <path stroke-linecap="round" d="M154 56a58 58 0 0 1-29.3 50.4 58 58 0 0 1-58.29-.513"></path> <path d="M122 56a26 26 0 0 1-26 26 26 26 0 0 1-26-26 26 26 0 0 1 26-26 26 26 0 0 1 26 26z"></path> <path stroke-linecap="round" d="m170 160-58-80m-90 80 58-80"></path> </g> </g></svg>