<svg xmlns="http://www.w3.org/2000/svg" xmlns:xlink="http://www.w3.org/1999/xlink" width="1080" zoomAndPan="magnify" viewBox="0 0 810 809.999993" height="1080" preserveAspectRatio="xMidYMid meet" version="1.0"><defs><clipPath id="5de067cb8d"><path d="M 52.894531 5.066406 L 757.144531 5.066406 L 757.144531 804.566406 L 52.894531 804.566406 Z M 52.894531 5.066406 " clip-rule="nonzero"/></clipPath></defs><g clip-path="url(#5de067cb8d)"><path fill="#712cf9" d="M 349.535156 42.257812 L 358.414062 66.429688 C 358.667969 67.082031 358.808594 67.761719 358.808594 68.445312 C 358.808594 70.402344 357.730469 72.21875 356.03125 73.183594 L 303.347656 103.507812 L 303.347656 68.246094 Z M 303.347656 166.316406 L 395.746094 112.671875 C 398.46875 111.082031 401.589844 110.230469 404.738281 110.230469 C 407.886719 110.230469 410.980469 111.082031 413.703125 112.671875 L 614.472656 228.503906 C 615.378906 229.039062 616.371094 229.410156 617.421875 229.578125 C 624.542969 224.8125 633.082031 222.035156 642.273438 222.035156 C 666.953125 222.035156 686.980469 242.0625 686.980469 266.742188 C 686.980469 291.425781 666.953125 311.453125 642.273438 311.453125 C 617.5625 311.453125 597.5625 291.425781 597.5625 266.742188 C 597.5625 263.507812 597.902344 260.390625 598.554688 257.351562 C 597.960938 256.730469 597.25 256.160156 596.429688 255.679688 L 410.78125 148.1875 C 408.964844 147.167969 406.921875 146.601562 404.824219 146.601562 C 402.726562 146.601562 400.652344 147.167969 398.839844 148.1875 L 303.347656 203.453125 Z M 207.488281 211.652344 L 184.398438 177.324219 C 182.921875 175.195312 180.113281 174.515625 177.902344 175.792969 L 94.015625 224.332031 C 92.140625 225.410156 90.949219 227.425781 90.921875 229.578125 L 90.863281 534.175781 C 90.863281 537.128906 89.390625 539.027344 86.496094 539.824219 C 80.511719 541.46875 74.210938 541.667969 67.601562 540.417969 C 66.410156 540.871094 65.304688 541.042969 64.285156 540.929688 C 61.277344 540.644531 59.746094 538.972656 59.746094 535.878906 L 58.554688 411 L 59.320312 212.699219 C 59.320312 209.523438 60.679688 207.082031 63.433594 205.4375 L 107.175781 178.601562 L 207.488281 122.175781 Z M 642.273438 245.464844 C 654.015625 245.464844 663.550781 255 663.550781 266.742188 C 663.550781 278.488281 654.015625 288.019531 642.273438 288.019531 C 630.5 288.019531 620.96875 278.488281 620.96875 266.742188 C 620.96875 255 630.5 245.464844 642.273438 245.464844 Z M 461.195312 40.726562 L 746.898438 205.4375 C 749.253906 206.800781 750.726562 209.351562 750.726562 212.105469 L 750.300781 542.632812 L 722.867188 536.730469 C 720.257812 536.164062 718.953125 534.574219 718.953125 531.964844 L 718.867188 377.070312 C 718.867188 373.4375 717.054688 371.59375 713.394531 371.59375 L 667.691406 371.59375 C 663.292969 371.59375 661.109375 373.808594 661.109375 378.175781 L 661.28125 547.171875 C 661.308594 551.710938 658.867188 555.964844 654.925781 558.261719 L 451.972656 675.144531 C 450.015625 676.277344 448.285156 677.753906 446.867188 679.457031 C 446.894531 680.277344 446.925781 681.070312 446.925781 681.894531 C 446.925781 706.605469 426.925781 726.605469 402.214844 726.605469 C 377.535156 726.605469 357.535156 706.605469 357.535156 681.894531 C 357.535156 657.214844 377.535156 637.214844 402.214844 637.214844 C 413.421875 637.214844 423.660156 641.328125 431.492188 648.109375 C 431.660156 648.136719 431.832031 648.136719 431.972656 648.136719 C 433.5625 648.136719 435.121094 647.738281 436.511719 646.945312 L 627.351562 536.984375 C 629.847656 535.566406 631.378906 532.929688 631.378906 530.09375 L 631.292969 350.402344 C 631.292969 343.226562 634.867188 339.679688 642.046875 339.738281 L 714.5 339.90625 C 716.855469 339.90625 718.785156 338.007812 718.785156 335.625 L 718.867188 233.210938 C 718.867188 228.8125 716.515625 224.785156 712.714844 222.601562 L 453.929688 73.351562 C 451.152344 71.761719 450.328125 69.464844 451.464844 66.429688 Z M 402.214844 660.617188 C 413.988281 660.617188 423.519531 670.148438 423.519531 681.894531 C 423.519531 693.667969 413.988281 703.199219 402.214844 703.199219 C 390.46875 703.199219 380.9375 693.667969 380.9375 681.894531 C 380.9375 670.148438 390.46875 660.617188 402.214844 660.617188 Z M 691.945312 634.40625 C 693.59375 634.179688 694.246094 634.832031 693.90625 636.363281 C 693.5625 637.894531 692.710938 639.058594 691.351562 639.851562 L 614.046875 684.957031 C 545.335938 724.503906 476.34375 764.222656 407.039062 804.136719 C 405.617188 804.929688 403.40625 804.589844 400.457031 803.117188 L 115.207031 634.746094 L 128.878906 615.257812 C 130.582031 612.757812 134.015625 611.964844 136.765625 613.527344 L 261.617188 685.554688 C 262.382812 686.007812 263.261719 686.265625 264.144531 686.265625 C 265.816406 686.265625 267.375 685.414062 268.285156 684.023438 L 294.695312 644.5625 C 296.511719 641.78125 295.972656 639.539062 293.078125 637.894531 L 152.367188 556.730469 C 150.070312 555.425781 148.90625 553.441406 148.851562 550.746094 C 148.171875 471.539062 148.171875 392.703125 148.851562 314.289062 C 148.878906 311.3125 148.226562 308.53125 146.867188 305.890625 C 131.148438 298.96875 120.140625 283.253906 120.140625 264.957031 C 120.140625 240.273438 140.171875 220.246094 164.851562 220.246094 C 189.53125 220.246094 209.5625 240.273438 209.5625 264.957031 C 209.5625 284.160156 197.445312 300.558594 180.425781 306.886719 C 179.148438 308.304688 178.496094 310.035156 178.496094 312.046875 L 178.242188 530.007812 C 178.214844 532.871094 179.746094 535.597656 182.269531 537.042969 L 336.910156 625.753906 C 340.9375 628.105469 341.675781 631.199219 339.121094 635.085938 L 296.824219 699.738281 C 296.285156 700.589844 296 701.554688 296 702.546875 C 296 704.363281 296.964844 706.066406 298.527344 707 L 400.199219 765.695312 C 402.980469 767.34375 406.527344 767.371094 409.449219 765.753906 L 669.902344 615.171875 C 672.882812 613.46875 675.40625 613.953125 677.507812 616.617188 Z M 164.851562 243.679688 C 176.625 243.679688 186.15625 253.210938 186.15625 264.957031 C 186.15625 276.699219 176.625 286.234375 164.851562 286.234375 C 153.105469 286.234375 143.574219 276.699219 143.574219 264.957031 C 143.574219 253.210938 153.105469 243.679688 164.851562 243.679688 Z M 721.480469 554.179688 C 741.136719 554.179688 757.082031 570.121094 757.082031 589.78125 C 757.082031 609.46875 741.136719 625.414062 721.480469 625.414062 C 701.789062 625.414062 685.847656 609.46875 685.847656 589.78125 C 685.847656 570.121094 701.789062 554.179688 721.480469 554.179688 Z M 88.539062 553.214844 C 108.199219 553.214844 124.140625 569.183594 124.140625 588.84375 C 124.140625 608.503906 108.199219 624.476562 88.539062 624.476562 C 68.851562 624.476562 52.90625 608.503906 52.90625 588.84375 C 52.90625 569.183594 68.851562 553.214844 88.539062 553.214844 Z M 404.425781 5.066406 C 424.117188 5.066406 440.058594 21.011719 440.058594 40.699219 C 440.058594 60.359375 424.117188 76.300781 404.425781 76.300781 C 384.769531 76.300781 368.824219 60.359375 368.824219 40.699219 C 368.824219 21.011719 384.769531 5.066406 404.425781 5.066406 Z M 403.519531 530.433594 L 510.242188 468.558594 C 511.238281 467.964844 511.859375 466.886719 511.859375 465.695312 C 511.859375 465.695312 511.859375 465.667969 511.859375 465.667969 L 511.691406 341.863281 C 511.691406 341.863281 511.691406 341.835938 511.691406 341.835938 C 511.691406 340.644531 511.066406 339.566406 510.074219 338.972656 L 403.605469 277.636719 C 403.121094 277.351562 402.554688 277.210938 401.988281 277.210938 C 401.421875 277.210938 400.882812 277.351562 400.371094 277.636719 L 356.371094 302.660156 C 355.886719 302.941406 355.320312 303.085938 354.753906 303.085938 C 352.910156 303.085938 351.433594 301.582031 351.40625 299.765625 L 351.40625 223.964844 C 351.433594 222.828125 352.058594 221.75 353.050781 221.15625 L 399.945312 193.636719 C 400.457031 193.351562 401.050781 193.183594 401.648438 193.183594 C 402.242188 193.183594 402.839844 193.351562 403.347656 193.636719 L 582.667969 296.757812 C 583.746094 297.351562 584.398438 298.460938 584.398438 299.679688 L 584.398438 507.964844 C 584.398438 509.15625 583.746094 510.261719 582.667969 510.859375 L 403.347656 614.234375 C 402.867188 614.519531 402.269531 614.6875 401.703125 614.6875 C 401.109375 614.6875 400.539062 614.519531 400.03125 614.234375 L 220.878906 510.519531 C 219.886719 509.921875 219.261719 508.84375 219.261719 507.710938 L 219.207031 373.523438 L 219.179688 373.523438 L 219.179688 299.933594 C 219.179688 299.792969 219.179688 299.679688 219.179688 299.566406 L 219.179688 78.375 L 291.660156 35.648438 L 291.660156 261.324219 C 291.6875 261.496094 291.6875 261.695312 291.6875 261.863281 C 291.6875 261.890625 291.6875 261.890625 291.6875 261.921875 L 291.660156 363.820312 L 291.660156 373.523438 L 291.605469 465.75 C 291.632812 466.941406 292.285156 468.078125 293.335938 468.644531 L 400.113281 530.433594 C 400.625 530.714844 401.222656 530.886719 401.816406 530.886719 C 402.414062 530.886719 403.007812 530.714844 403.519531 530.433594 Z M 412.085938 457.042969 C 395.917969 464.902344 368.171875 444.390625 355.09375 434.488281 C 352.824219 432.816406 351.492188 430.148438 351.492188 427.285156 L 351.492188 379.367188 C 351.492188 376.105469 353.222656 373.070312 356.03125 371.425781 L 397.730469 347.253906 C 400.457031 345.722656 403.179688 345.722656 405.929688 347.253906 L 447.265625 370.402344 C 450.15625 372.050781 451.972656 375.113281 451.972656 378.433594 L 452.058594 427.226562 C 452.058594 430.574219 450.726562 433.242188 448.03125 435.171875 C 436.65625 443.539062 424.65625 450.828125 412.085938 457.042969 Z M 412.085938 457.042969 " fill-opacity="1" fill-rule="evenodd"/></g></svg>